<svg width="248" height="86" viewBox="0 0 248 86" fill="none" xmlns="http://www.w3.org/2000/svg">
<path fill-rule="evenodd" clip-rule="evenodd" d="M0.00121233 25.6339C0.00121233 30.4308 0.496567 32.6057 2.12407 36.7111C2.34256 37.2648 2.48285 37.5181 2.73486 38.0221C2.95831 38.4715 3.09854 38.9531 3.46104 39.2188C3.80243 38.5732 4.32133 37.0799 5.21391 35.4598C8.09897 30.2148 14.6115 26.4024 20.7627 26.4024C23.1103 26.4024 24.4249 26.7873 25.8898 26.7873C26.41 26.7873 29.6339 23.7135 31.8288 22.5999C32.2533 22.3852 32.4333 22.22 32.8095 22.045C35.2948 20.8905 38.7944 19.8663 42.4231 19.8663H51.9076C51.8976 19.3983 51.5264 18.1531 51.3812 17.7C50.5345 15.0632 48.2379 10.8449 46.3013 8.93928C45.4609 8.1125 46.1312 8.55318 44.896 7.52404L42.7359 5.5825C38.1774 2.16611 33.1285 0.279213 27.927 -0.000106812H25.2108C21.9433 0.174934 18.6387 0.980568 15.3787 2.43303C12.5967 3.67445 9.92762 5.51422 7.78616 7.65816C3.24008 12.2104 0.00121233 19.1661 0.00121233 25.6339ZM48.8301 2.69247C49.411 3.55898 51.735 5.33428 52.933 6.91833C53.1775 7.23986 53.3761 7.51409 53.6455 7.8741C55.9694 10.9652 58.5703 16.2773 58.5703 19.8663H85.1007C84.4501 17.0731 83.0163 14.2576 81.642 12.1745C81.4434 11.8729 81.282 11.6679 81.0536 11.3526C79.2151 8.80145 76.5038 6.13496 73.7814 4.52732C71.8075 3.36039 71.5145 3.13323 69.0987 2.15995C63.1089 -0.250885 56.1048 -0.161629 50.0219 2.21693C49.5451 2.40314 49.2385 2.4777 48.8301 2.69247ZM59.0842 85.998C63.0431 85.998 66.0361 85.4431 69.7021 83.9286C75.9762 81.3365 80.9767 76.4926 83.7351 70.2768C84.3087 68.9844 84.9232 67.4463 85.2286 66.1317C84.5892 66.1317 84.5234 66.0075 83.8245 65.9988L75.8732 65.8746C75.147 65.8746 74.4195 65.8784 73.6933 65.8746C72.7945 65.8709 72.4133 65.9988 71.6486 66.0088C70.0161 66.0299 68.848 65.8759 67.2863 65.8759C65.7842 65.8759 64.7699 66.005 63.3137 66.0038C61.8339 66.0038 60.8334 65.8759 59.3399 65.8759C57.8763 65.8759 54.4723 66.0931 53.3228 65.9975C51.3787 65.8362 52.9454 65.8362 51.0013 65.9975L45.2411 66.0038C41.0079 66.0038 36.4158 65.4439 33.5779 64.0821C33.6028 65.2229 34.3973 67.8398 34.7697 68.787C36.0509 72.0494 37.9713 75.3616 40.4678 77.8283C41.3368 78.6874 42.6316 79.966 43.6509 80.6687C45.5366 81.9672 46.9692 83.0062 49.2509 83.91C52.2328 85.0918 55.7174 85.998 59.0829 85.998M26.0152 85.1005C29.238 85.1005 31.902 84.8746 34.8442 83.9324C35.5618 83.7027 36.4084 83.3551 37.1657 83.1776L33.6711 79.6233C33.3185 79.272 33.2242 79.0833 32.9039 78.7258L30.6731 75.5727C28.7824 72.0992 27.0009 67.6771 27.0418 63.4389C27.0493 62.6444 26.9264 62.4508 26.9053 61.7755C26.8656 60.4956 27.3522 60.3144 26.3019 59.0518C23.1624 55.2816 21.2035 52.6125 20.1731 47.4953C19.2122 42.7258 19.7746 39.3839 21.0694 34.9123C21.2804 34.1848 21.7261 33.5306 21.7856 32.8094C19.0955 33.0328 14.3806 35.2587 12.0256 36.8911L7.85443 40.4081L6.37714 42.1349C3.42255 45.73 1.46357 50.4165 0.820517 55.0359C0.558577 56.9241 0.623177 58.9463 0.63435 60.8817C0.650488 63.5483 2.15757 68.1316 3.33071 70.4903C4.19971 72.2382 5.1432 73.6634 6.33372 75.1767C7.83336 77.0835 9.97601 79.03 11.9511 80.4527C12.2826 80.6911 12.5346 80.8102 12.8921 81.0498C13.2583 81.2956 13.4669 81.4507 13.8393 81.6406L15.9746 82.7082C16.779 83.0844 17.3302 83.2644 18.1794 83.581L20.5306 84.3047C22.0997 84.6722 24.1481 85.1005 26.0152 85.1005Z" fill="white"/>
<path fill-rule="evenodd" clip-rule="evenodd" d="M139.188 52.2919H144.186V40.1161L146.619 44.9874C147.102 46.0761 148.059 47.5634 148.159 47.9333H151.62C152.707 46.3083 154.943 40.7157 155.464 40.1161V52.2907H160.976L160.969 44.0961C160.77 41.6865 160.975 42.7677 160.975 40.4996V33.7067H154.439C154.136 35.0064 150.216 42.2339 150.082 42.8062C149.502 42.1408 148.094 39.087 147.689 38.2788L145.98 34.732C145.816 34.3993 145.62 33.7067 145.212 33.7067H139.188V52.2919ZM216.215 52.2919H221.597V33.7079H216.215V52.2919ZM66.262 47.0369C66.262 48.4038 66.411 51.1002 66.1341 52.2907H71.7727C71.7727 50.7886 71.6448 49.7496 71.6448 48.3182C71.6448 47.2903 71.5927 45.474 72.098 44.6696L78.13 35.4495C78.4714 34.9381 79.1108 34.1201 79.2064 33.7067H73.3096C72.9595 34.233 72.6554 34.8239 72.3103 35.3974C71.7963 36.2478 69.3557 40.1297 69.2092 40.7566C68.7002 40.4153 65.4042 34.7234 64.7239 33.7067H58.7005C58.8632 34.4093 63.1051 40.5071 63.8016 41.5512L65.8586 44.7478C66.2173 45.294 66.262 46.1692 66.262 47.0369ZM234.286 42.8074C233.228 44.3865 227.265 51.7072 227.109 52.2919H231.082C233.47 52.2919 232.85 52.4794 233.921 51.0294C234.806 49.8302 235.947 48.1406 236.953 47.0109C237.253 46.6732 237.238 46.8607 237.362 46.3952C237.869 46.7341 238.164 47.2518 238.551 47.7695C238.97 48.3257 241.579 51.7668 241.72 52.2907H248C247.282 50.9351 241.011 43.3836 240.823 42.6797L242.576 40.4599C243.045 39.8802 247.744 34.1834 247.872 33.7067C246.981 33.7067 242.882 33.6347 242.207 33.8097C241.728 33.9339 241.679 34.1113 241.118 34.7705L237.747 39.2185C237.356 39.1142 237.464 39.1652 237.208 38.8598L233.837 34.2851C233.547 33.8854 233.73 33.9661 233.253 33.842C232.383 33.6185 228.317 33.7067 227.237 33.7067C227.355 34.1511 230.353 37.8183 230.716 38.3037L234.286 42.8074ZM169.049 52.2919H184.174V48.9588C184.174 48.6646 184.084 48.5739 183.789 48.5739H174.561V44.2165L180.201 44.0886C181.447 44.0886 182.177 44.2165 183.404 44.2165V40.4996H174.561V37.2968H184.174V33.7067H169.051L169.049 52.2919ZM33.8361 42.6797C33.8361 46.3853 34.9857 49.2753 38.1972 51.1337C41.5789 53.0902 46.2304 52.9301 49.9758 52.1542L52.6399 51.4863C53.0521 51.3746 53.3177 51.4528 53.3177 51.0096V42.0378H47.9337V49.2156C45.3131 49.2156 43.7154 49.0991 41.9501 48.1506C39.2872 46.723 38.9644 42.1794 39.9849 39.9845C40.3039 39.2993 40.7794 38.8697 41.2983 38.3508C41.8073 37.8418 42.4093 37.5439 43.1517 37.2559C47.8492 35.4285 52.2054 39.2459 53.1886 39.4743C53.2023 38.866 53.319 38.7046 53.3177 37.2956V34.8611C52.7231 34.7233 52.2352 34.4789 51.6034 34.2678C50.9479 34.0493 50.5146 33.9363 49.8045 33.7588C46.8934 33.0301 43.5117 32.9369 40.6428 33.8506C36.7932 35.0747 33.8361 38.002 33.8361 42.6797ZM126.5 42.0378C126.5 44.5392 126.456 47.1797 123.855 48.621C122.089 49.5992 117.803 49.4081 116.711 45.4182C116.108 43.2134 116.469 40.3134 117.505 38.8125C118.625 37.195 120.721 36.3347 123.216 37.1168C125.061 37.6953 126.5 39.6716 126.5 42.0378ZM110.735 43.0632C110.735 45.0272 111.363 47.0979 112.373 48.6025L114.757 50.9611C118.631 53.5395 126.063 53.326 129.354 50.0176C131.634 47.7247 132.138 46.0626 132.138 42.5506C132.138 40.4066 131.478 38.4564 130.313 36.9443C130.282 36.9059 130.057 36.6439 130.014 36.6017C127.839 34.4454 125.5 33.1952 121.5 33.1952C119.806 33.1952 118.368 33.436 117.061 33.8817C113.231 35.1902 110.735 38.4613 110.735 43.0632ZM196.99 48.8309C196.99 47.0147 196.862 45.6603 196.862 43.8329V37.1677C201.926 37.1677 205.449 37.6345 205.449 43.5759C205.449 44.5939 205.033 45.4703 204.683 46.1432C203.365 48.6757 200.12 48.8309 196.99 48.8309ZM191.478 52.2907C195.081 52.2907 201.323 52.6049 204.453 51.68C214.19 48.8049 213.445 33.7067 200.579 33.7067H191.479L191.478 52.2907ZM84.974 34.0914V52.2907H89.972V39.8591C90.3307 40.121 90.7715 40.8845 91.0731 41.3214C93.1041 44.2562 95.5856 48.0872 97.6799 50.863C97.8885 51.1399 98.0114 51.2975 98.2287 51.5954C98.3193 51.7208 98.4062 51.8648 98.4968 51.9704C98.683 52.1876 98.5837 52.2907 98.9437 52.2907H103.814V33.7067H98.9437V44.2165L96.0723 40.2961C95.3808 39.298 91.7484 33.7067 91.1265 33.7067H85.3588C85.0634 33.7067 84.974 33.796 84.974 34.0914Z" fill="white"/>
</svg>
