<svg width="248" height="86" viewBox="0 0 248 86" fill="none" xmlns="http://www.w3.org/2000/svg">
<path fill-rule="evenodd" clip-rule="evenodd" d="M0.00121233 25.634C0.00121233 30.4309 0.496567 32.6058 2.12407 36.7112C2.34256 37.2649 2.48285 37.5182 2.73486 38.0222C2.95831 38.4716 3.09854 38.9532 3.46104 39.2189C3.80243 38.5734 4.32133 37.08 5.21391 35.4599C8.09897 30.2149 14.6115 26.4025 20.7627 26.4025C23.1103 26.4025 24.4249 26.7874 25.8898 26.7874C26.41 26.7874 29.6339 23.7136 31.8288 22.6C32.2533 22.3853 32.4333 22.2201 32.8095 22.0451C35.2948 20.8906 38.7944 19.8664 42.4231 19.8664H51.9076C51.8976 19.3984 51.5264 18.1532 51.3812 17.7001C50.5345 15.0633 48.2379 10.845 46.3013 8.9394C45.4609 8.11262 46.1312 8.5533 44.896 7.52416L42.7359 5.58263C38.1774 2.16623 33.1285 0.279335 27.927 1.52588e-05H25.2108C21.9433 0.175056 18.6387 0.98069 15.3787 2.43315C12.5967 3.67458 9.92762 5.51434 7.78616 7.65828C3.24008 12.2106 0.00121233 19.1662 0.00121233 25.634ZM48.8301 2.69259C49.411 3.5591 51.735 5.3344 52.933 6.91846C53.1775 7.23998 53.3761 7.51421 53.6455 7.87422C55.9694 10.9654 58.5703 16.2775 58.5703 19.8664H85.1007C84.4501 17.0732 83.0163 14.2578 81.642 12.1746C81.4434 11.873 81.282 11.668 81.0536 11.3527C79.2151 8.80157 76.5038 6.13509 73.7814 4.52744C71.8075 3.36051 71.5145 3.13335 69.0987 2.16007C63.1089 -0.250763 56.1048 -0.161507 50.0219 2.21706C49.5451 2.40327 49.2385 2.47782 48.8301 2.69259ZM59.0842 85.9982C63.0431 85.9982 66.0361 85.4433 69.7021 83.9287C75.9762 81.3366 80.9767 76.4927 83.7351 70.2769C84.3087 68.9846 84.9232 67.4465 85.2286 66.1318C84.5892 66.1318 84.5234 66.0076 83.8245 65.9989L75.8732 65.8748C75.147 65.8748 74.4195 65.8785 73.6933 65.8748C72.7945 65.871 72.4133 65.999 71.6486 66.0089C70.0161 66.03 68.848 65.876 67.2863 65.876C65.7842 65.876 64.7699 66.0051 63.3137 66.0039C61.8339 66.0039 60.8334 65.876 59.3399 65.876C57.8763 65.876 54.4723 66.0933 53.3228 65.9977C51.3787 65.8363 52.9454 65.8363 51.0013 65.9977L45.2411 66.0039C41.0079 66.0039 36.4158 65.444 33.5779 64.0822C33.6028 65.2231 34.3973 67.8399 34.7697 68.7871C36.0509 72.0495 37.9713 75.3618 40.4678 77.8285C41.3368 78.6875 42.6316 79.9661 43.6509 80.6688C45.5366 81.9673 46.9692 83.0063 49.2509 83.9101C52.2328 85.0919 55.7174 85.9982 59.0829 85.9982M26.0152 85.1006C29.238 85.1006 31.902 84.8748 34.8442 83.9325C35.5618 83.7029 36.4084 83.3552 37.1657 83.1777L33.6711 79.6235C33.3185 79.2721 33.2242 79.0834 32.9039 78.7259L30.6731 75.5728C28.7824 72.0993 27.0009 67.6773 27.0418 63.4391C27.0493 62.6445 26.9264 62.4509 26.9053 61.7756C26.8656 60.4957 27.3522 60.3145 26.3019 59.052C23.1624 55.2818 21.2035 52.6126 20.1731 47.4955C19.2122 42.7259 19.7746 39.384 21.0694 34.9124C21.2804 34.185 21.7261 33.5308 21.7856 32.8095C19.0955 33.0329 14.3806 35.2588 12.0256 36.8912L7.85443 40.4082L6.37714 42.135C3.42255 45.7302 1.46357 50.4166 0.820517 55.036C0.558577 56.9242 0.623177 58.9464 0.63435 60.8818C0.650488 63.5484 2.15757 68.1317 3.33071 70.4904C4.19971 72.2383 5.1432 73.6635 6.33372 75.1768C7.83336 77.0836 9.97601 79.0302 11.9511 80.4528C12.2826 80.6912 12.5346 80.8103 12.8921 81.0499C13.2583 81.2957 13.4669 81.4508 13.8393 81.6408L15.9746 82.7084C16.779 83.0845 17.3302 83.2645 18.1794 83.5811L20.5306 84.3049C22.0997 84.6723 24.1481 85.1006 26.0152 85.1006Z" fill="#FF2E17"/>
<path fill-rule="evenodd" clip-rule="evenodd" d="M139.188 52.2923H144.186V40.1164L146.619 44.9877C147.102 46.0765 148.059 47.5637 148.159 47.9337H151.62C152.707 46.3087 154.943 40.7161 155.464 40.1164V52.2911H160.976L160.969 44.0965C160.77 41.6869 160.975 42.7681 160.975 40.5V33.707H154.439C154.136 35.0068 150.216 42.2343 150.082 42.8066C149.502 42.1412 148.094 39.0873 147.689 38.2792L145.98 34.7324C145.816 34.3997 145.62 33.707 145.212 33.707H139.188V52.2923ZM216.215 52.2923H221.597V33.7082H216.215V52.2923ZM66.262 47.0373C66.262 48.4041 66.411 51.1006 66.1341 52.2911H71.7727C71.7727 50.789 71.6448 49.7499 71.6448 48.3186C71.6448 47.2907 71.5927 45.4744 72.098 44.6699L78.13 35.4499C78.4714 34.9384 79.1108 34.1204 79.2064 33.707H73.3096C72.9595 34.2334 72.6554 34.8242 72.3103 35.3978C71.7963 36.2481 69.3557 40.1301 69.2092 40.757C68.7002 40.4156 65.4042 34.7238 64.7239 33.707H58.7005C58.8632 34.4097 63.1051 40.5075 63.8016 41.5515L65.8586 44.7481C66.2173 45.2944 66.262 46.1696 66.262 47.0373ZM234.286 42.8078C233.228 44.3869 227.265 51.7076 227.109 52.2923H231.082C233.47 52.2923 232.85 52.4798 233.921 51.0298C234.806 49.8306 235.947 48.1409 236.953 47.0112C237.253 46.6736 237.238 46.8611 237.362 46.3955C237.869 46.7344 238.164 47.2522 238.551 47.7699C238.97 48.326 241.579 51.7672 241.72 52.2911H248C247.282 50.9354 241.011 43.384 240.823 42.6801L242.576 40.4603C243.045 39.8806 247.744 34.1837 247.872 33.707C246.981 33.707 242.882 33.635 242.207 33.8101C241.728 33.9342 241.679 34.1117 241.118 34.7709L237.747 39.2189C237.356 39.1146 237.464 39.1656 237.208 38.8602L233.837 34.2855C233.547 33.8857 233.73 33.9665 233.253 33.8424C232.383 33.6189 228.317 33.707 227.237 33.707C227.355 34.1515 230.353 37.8186 230.716 38.304L234.286 42.8078ZM169.049 52.2923H184.174V48.9592C184.174 48.6649 184.084 48.5742 183.789 48.5742H174.561V44.2168L180.201 44.0889C181.447 44.0889 182.177 44.2168 183.404 44.2168V40.5H174.561V37.2972H184.174V33.707H169.051L169.049 52.2923ZM33.8361 42.6801C33.8361 46.3857 34.9857 49.2757 38.1972 51.1341C41.5789 53.0905 46.2304 52.9304 49.9758 52.1545L52.6399 51.4867C53.0521 51.375 53.3177 51.4531 53.3177 51.01V42.0381H47.9337V49.216C45.3131 49.216 43.7154 49.0994 41.9501 48.151C39.2872 46.7234 38.9644 42.1797 39.9849 39.9849C40.3039 39.2996 40.7794 38.8701 41.2983 38.3512C41.8073 37.8422 42.4093 37.5443 43.1517 37.2563C47.8492 35.4289 52.2054 39.2463 53.1886 39.4747C53.2023 38.8664 53.319 38.705 53.3177 37.296V34.8615C52.7231 34.7237 52.2352 34.4792 51.6034 34.2682C50.9479 34.0497 50.5146 33.9367 49.8045 33.7592C46.8934 33.0305 43.5117 32.9373 40.6428 33.851C36.7932 35.075 33.8361 38.0024 33.8361 42.6801ZM126.5 42.0381C126.5 44.5396 126.456 47.1801 123.855 48.6214C122.089 49.5996 117.803 49.4085 116.711 45.4186C116.108 43.2138 116.469 40.3138 117.505 38.8129C118.625 37.1953 120.721 36.3351 123.216 37.1172C125.061 37.6957 126.5 39.672 126.5 42.0381ZM110.735 43.0636C110.735 45.0275 111.363 47.0983 112.373 48.6029L114.757 50.9615C118.631 53.5399 126.063 53.3264 129.354 50.018C131.634 47.7251 132.138 46.0629 132.138 42.551C132.138 40.407 131.478 38.4568 130.313 36.9447C130.282 36.9062 130.057 36.6443 130.014 36.6021C127.839 34.4457 125.5 33.1956 121.5 33.1956C119.806 33.1956 118.368 33.4364 117.061 33.8821C113.231 35.1905 110.735 38.4617 110.735 43.0636ZM196.99 48.8313C196.99 47.0151 196.862 45.6607 196.862 43.8333V37.1681C201.926 37.1681 205.449 37.6348 205.449 43.5763C205.449 44.5942 205.033 45.4707 204.683 46.1435C203.365 48.676 200.12 48.8313 196.99 48.8313ZM191.478 52.2911C195.081 52.2911 201.323 52.6052 204.453 51.6804C214.19 48.8052 213.445 33.707 200.579 33.707H191.479L191.478 52.2911ZM84.974 34.0918V52.2911H89.972V39.8594C90.3307 40.1214 90.7715 40.8848 91.0731 41.3218C93.1041 44.2565 95.5856 48.0876 97.6799 50.8634C97.8885 51.1403 98.0114 51.2979 98.2287 51.5958C98.3193 51.7212 98.4062 51.8652 98.4968 51.9707C98.683 52.188 98.5837 52.2911 98.9437 52.2911H103.814V33.707H98.9437V44.2168L96.0723 40.2965C95.3808 39.2984 91.7484 33.707 91.1265 33.707H85.3588C85.0634 33.707 84.974 33.7963 84.974 34.0918Z" fill="#09090D"/>
</svg>
