<svg width="113" height="113" viewBox="0 0 113 113" fill="none" xmlns="http://www.w3.org/2000/svg">
<path d="M55.0625 112.833C51.4417 112.833 47.7945 112.423 44.121 111.602C40.4475 110.782 36.6884 109.601 32.8438 108.06C34.1604 94.784 38.0007 82.3854 44.3646 70.8646C50.7285 59.3438 58.9028 49.1944 68.8875 40.4167C56.8181 46.5611 46.3681 54.6806 37.5377 64.775C28.7072 74.8694 22.5343 86.3903 19.0187 99.3375C18.5799 99.0083 18.1695 98.6528 17.7877 98.271L16.55 97.0333C11.3931 91.8764 7.47158 86.116 4.78558 79.7521C2.09958 73.3882 0.754389 66.75 0.75 59.8375C0.75 52.3764 2.23125 45.2444 5.19375 38.4417C8.15625 31.6389 12.2708 25.6042 17.5375 20.3375C26.425 11.45 37.9458 5.66325 52.1 2.97725C66.2542 0.291255 86.1139 0.0432801 111.679 2.23334C113.654 28.4569 113.325 48.4549 110.692 62.2272C108.058 75.9996 102.353 87.2724 93.575 96.0458C88.1986 101.422 82.1902 105.565 75.5498 108.475C68.9094 111.385 62.0803 112.838 55.0625 112.833Z" fill="white"/>
</svg>
