<svg width="110" height="110" viewBox="0 0 110 110" fill="none" xmlns="http://www.w3.org/2000/svg">
<g clip-path="url(#clip0_7_175)">
<path d="M39.4167 75.1667C35.4144 78.8559 30.1404 80.8542 24.6983 80.7435C19.2563 80.6328 14.0679 78.4216 10.219 74.5727C6.37008 70.7238 4.1589 65.5354 4.04819 60.0933C3.93748 54.6513 5.93581 49.3773 9.62501 45.375L45.375 9.625C49.3773 5.93581 54.6513 3.93747 60.0933 4.04818C65.5354 4.15889 70.7238 6.37007 74.5727 10.219C78.4216 14.0679 80.6328 19.2563 80.7435 24.6983C80.8542 30.1404 78.8559 35.4144 75.1667 39.4167M27.4954 27.4954L46.9746 46.9746" stroke="white" stroke-width="8" stroke-linecap="round" stroke-linejoin="round"/>
<path d="M79.0626 68.75V89.375M68.7501 79.0625H89.3751M106.563 72.1875C106.577 80.192 103.86 87.9619 98.8592 94.2124C93.8588 100.463 86.8751 104.82 79.0626 106.563C71.2501 104.82 64.2663 100.463 59.2659 94.2124C54.2655 87.9619 51.5479 80.192 51.5626 72.1875V61.875C51.5626 60.0516 52.2869 58.303 53.5762 57.0136C54.8655 55.7243 56.6142 55 58.4376 55H99.6876C101.511 55 103.26 55.7243 104.549 57.0136C105.838 58.303 106.563 60.0516 106.563 61.875V72.1875Z" stroke="white" stroke-width="8" stroke-linecap="round" stroke-linejoin="round"/>
</g>
<defs>
<clipPath id="clip0_7_175">
<rect width="110" height="110" fill="white"/>
</clipPath>
</defs>
</svg>
