<svg width="109" height="109" viewBox="0 0 109 109" fill="none" xmlns="http://www.w3.org/2000/svg">
<path fill-rule="evenodd" clip-rule="evenodd" d="M8.619 8.619C0.75 16.4987 0.75 29.1622 0.75 54.5C0.75 79.8378 0.75 92.5066 8.619 100.376C16.4987 108.25 29.1622 108.25 54.5 108.25C79.8378 108.25 92.5066 108.25 100.376 100.376C108.25 92.512 108.25 79.8378 108.25 54.5C108.25 29.1622 108.25 16.4934 100.376 8.619C92.512 0.75 79.8378 0.75 54.5 0.75C29.1622 0.75 16.4934 0.75 8.619 8.619ZM63.9062 43.75C63.9062 45.9753 65.7122 47.7812 67.9375 47.7812H71.6462L60.8264 58.6011C60.7016 58.7263 60.5533 58.8255 60.39 58.8933C60.2268 58.961 60.0518 58.9959 59.875 58.9959C59.6982 58.9959 59.5232 58.961 59.36 58.8933C59.1967 58.8255 59.0484 58.7263 58.9236 58.6011L50.3989 50.0764C48.6351 48.3138 46.2435 47.3237 43.75 47.3237C41.2565 47.3237 38.8649 48.3138 37.1011 50.0764L24.7762 62.4013C24.3802 62.7703 24.0625 63.2154 23.8422 63.7099C23.6218 64.2044 23.5034 64.7382 23.4938 65.2794C23.4843 65.8207 23.5838 66.3584 23.7866 66.8603C23.9893 67.3623 24.2911 67.8183 24.6739 68.2011C25.0567 68.5839 25.5127 68.8857 26.0147 69.0884C26.5166 69.2912 27.0543 69.3907 27.5956 69.3812C28.1368 69.3716 28.6706 69.2532 29.1651 69.0328C29.6596 68.8125 30.1047 68.4948 30.4738 68.0987L42.7986 55.7739C42.9234 55.6487 43.0717 55.5495 43.235 55.4817C43.3982 55.414 43.5732 55.3791 43.75 55.3791C43.9268 55.3791 44.1018 55.414 44.265 55.4817C44.4283 55.5495 44.5766 55.6487 44.7014 55.7739L53.2261 64.2986C54.9899 66.0612 57.3815 67.0513 59.875 67.0513C62.3685 67.0513 64.7601 66.0612 66.5239 64.2986L77.3438 53.4841V57.1875C77.3438 58.2567 77.7685 59.282 78.5245 60.038C79.2805 60.794 80.3058 61.2188 81.375 61.2188C82.4442 61.2188 83.4695 60.794 84.2255 60.038C84.9815 59.282 85.4062 58.2567 85.4062 57.1875V43.75C85.4062 42.6808 84.9815 41.6555 84.2255 40.8995C83.4695 40.1435 82.4442 39.7188 81.375 39.7188H67.9375C66.8683 39.7188 65.843 40.1435 65.087 40.8995C64.331 41.6555 63.9062 42.6808 63.9062 43.75Z" fill="white"/>
</svg>
