<svg width="104" height="104" viewBox="0 0 104 104" fill="none" xmlns="http://www.w3.org/2000/svg">
<path d="M43.8007 72.132L24 52.3267L30.5987 45.728L43.8007 58.9253L70.1953 32.526L76.7987 39.1293L43.8007 72.132Z" fill="white"/>
<path fill-rule="evenodd" clip-rule="evenodd" d="M0.666626 19.3333C0.666626 14.3826 2.63329 9.63468 6.13397 6.134C9.63465 2.63333 14.3826 0.666664 19.3333 0.666664H84.6666C89.6173 0.666664 94.3653 2.63333 97.866 6.134C101.367 9.63468 103.333 14.3826 103.333 19.3333V84.6667C103.333 89.6174 101.367 94.3653 97.866 97.866C94.3653 101.367 89.6173 103.333 84.6666 103.333H19.3333C14.3826 103.333 9.63465 101.367 6.13397 97.866C2.63329 94.3653 0.666626 89.6174 0.666626 84.6667V19.3333ZM19.3333 10H84.6666C87.142 10 89.516 10.9833 91.2663 12.7337C93.0166 14.484 94 16.858 94 19.3333V84.6667C94 87.142 93.0166 89.516 91.2663 91.2663C89.516 93.0167 87.142 94 84.6666 94H19.3333C16.8579 94 14.484 93.0167 12.7336 91.2663C10.9833 89.516 9.99996 87.142 9.99996 84.6667V19.3333C9.99996 16.858 10.9833 14.484 12.7336 12.7337C14.484 10.9833 16.8579 10 19.3333 10Z" fill="white"/>
</svg>
